<?xml version="1.0" encoding="UTF-8" standalone="no"?>
<svg
   xmlns:dc="http://purl.org/dc/elements/1.1/"
   xmlns:cc="http://creativecommons.org/ns#"
   xmlns:rdf="http://www.w3.org/1999/02/22-rdf-syntax-ns#"
   xmlns:svg="http://www.w3.org/2000/svg"
   xmlns="http://www.w3.org/2000/svg"
   xmlns:sodipodi="http://sodipodi.sourceforge.net/DTD/sodipodi-0.dtd"
   xmlns:inkscape="http://www.inkscape.org/namespaces/inkscape"
   version="1.1"
   width="1080"
   height="1920"
   viewBox="0 0 1080 1920"
   id="svg3055"
   inkscape:version="0.48.5 r10040"
   sodipodi:docname="background.svg">
  <metadata
     id="metadata3085">
    <rdf:RDF>
      <cc:Work
         rdf:about="">
        <dc:format>image/svg+xml</dc:format>
        <dc:type
           rdf:resource="http://purl.org/dc/dcmitype/StillImage" />
        <dc:title></dc:title>
      </cc:Work>
    </rdf:RDF>
  </metadata>
  <sodipodi:namedview
     pagecolor="#ffffff"
     bordercolor="#666666"
     borderopacity="1"
     objecttolerance="10"
     gridtolerance="10"
     guidetolerance="10"
     inkscape:pageopacity="0"
     inkscape:pageshadow="2"
     inkscape:window-width="1436"
     inkscape:window-height="855"
     id="namedview3083"
     showgrid="false"
     inkscape:zoom="0.23901682"
     inkscape:cx="5786.7955"
     inkscape:cy="1068.5415"
     inkscape:window-x="4"
     inkscape:window-y="0"
     inkscape:window-maximized="1"
     inkscape:current-layer="svg3055" />
  <defs
     id="defs3057">
    <style
       type="text/css"
       id="style3059">
            @import url(https://fonts.googleapis.com/css?family=Lato);
        </style>
  </defs>
  <rect
     style="fill:#ffaaaa;stroke-width:16;stroke-miterlimit:4;stroke-dasharray:none"
     id="rect3309"
     width="10041.134"
     height="3296.8391"
     x="-267.76358"
     y="-556.81311" />
  <g
     id="g3056"
     inkscape:export-filename="/Users/pscanf/projects/bookstreams/front/assets/app-splash/ios-1242x2208.png"
     inkscape:export-xdpi="103.5"
     inkscape:export-ydpi="103.5">
    <g
       id="g3094">
      <rect
         x="0"
         y="0"
         width="1080"
         height="1920"
         id="rect3061"
         inkscape:export-filename="/Users/pscanf/projects/bookstreams/front/assets/images/bookstreams.png"
         inkscape:export-xdpi="90"
         inkscape:export-ydpi="90"
         fill="#FFFFFF" />
      <g
         id="obj_3"
         transform="matrix(1,0,0,1,515,0)"
         display="inline"
         inkscape:export-filename="/Users/pscanf/projects/bookstreams/front/assets/images/bookstreams.png"
         inkscape:export-xdpi="90"
         inkscape:export-ydpi="90"
         opacity="1">
        <path
           d="M 54.8512 1092.2491 L 0 1150 L 0 0 L 110 0 L 110 1150 L 54.8512 1092.2491 Z "
           id="path3064"
           stroke-linejoin="miter"
           stroke-linecap="square"
           stroke-width="1"
           stroke="none"
           fill-opacity="1"
           fill="#f44336" />
      </g>
      <g
         id="obj_6"
         transform="matrix(1,0,0,1,375,0)"
         display="inline"
         inkscape:export-filename="/Users/pscanf/projects/bookstreams/front/assets/images/bookstreams.png"
         inkscape:export-xdpi="90"
         inkscape:export-ydpi="90"
         opacity="1">
        <path
           d="M 59.8377 840.7837 L 0 900 L 0 0 L 120 0 L 120 900 L 59.8377 840.7837 Z "
           id="path3067"
           stroke-linejoin="miter"
           stroke-linecap="square"
           stroke-width="1"
           stroke="none"
           fill-opacity="1"
           fill="#4caf50" />
      </g>
      <g
         id="obj_7"
         transform="matrix(1,0,0,1,215,0)"
         display="inline"
         inkscape:export-filename="/Users/pscanf/projects/bookstreams/front/assets/images/bookstreams.png"
         inkscape:export-xdpi="90"
         inkscape:export-ydpi="90"
         opacity="1">
        <path
           d="M 69.8106 1224.2436 L 0 1300 L 0 0 L 140 0 L 140 1300 L 69.8106 1224.2436 Z "
           id="path3070"
           stroke-linejoin="miter"
           stroke-linecap="square"
           stroke-width="1"
           stroke="none"
           fill-opacity="1"
           fill="#ffc107" />
      </g>
      <g
         id="obj_8"
         transform="matrix(1,0,0,1,645,0)"
         display="inline"
         inkscape:export-filename="/Users/pscanf/projects/bookstreams/front/assets/images/bookstreams.png"
         inkscape:export-xdpi="90"
         inkscape:export-ydpi="90"
         opacity="1">
        <path
           d="M 64.8241 434.6173 L 0 500 L 0 0 L 130 0 L 130 500 L 64.8241 434.6173 Z "
           id="path3073"
           stroke-linejoin="miter"
           stroke-linecap="square"
           stroke-width="1"
           stroke="none"
           fill-opacity="1"
           fill="#9c27b0" />
      </g>
      <path
         style="fill:#2196f3;fill-opacity:1;stroke:none"
         inkscape:connector-curvature="0"
         id="path3076"
         d="M 134.8377,711.3194 75,770 75,0 l 120,0 0,770 -60.1623,-58.6806 z"
         inkscape:export-filename="/Users/pscanf/projects/bookstreams/front/assets/images/bookstreams.png"
         inkscape:export-xdpi="90"
         inkscape:export-ydpi="90" />
      <g
         style="display:inline"
         display="inline"
         transform="matrix(0,1.0116284,-0.99393351,0,236.82965,68.05605)"
         id="obj_10"
         inkscape:export-filename="/Users/pscanf/projects/bookstreams/front/assets/images/bookstreams.png"
         inkscape:export-xdpi="90"
         inkscape:export-ydpi="90">
        <text
           style="font-size:130px;font-style:normal;font-weight:normal;letter-spacing:10;fill:#ffffff;fill-opacity:1;stroke:none;font-family:Lato"
           id="text3079"
           font-style="normal"
           font-weight="normal"
           letter-spacing="10"
           font-size="130"
           y="0"
           x="0">
          <tspan
             id="tspan3081"
             y="0"
             x="0">bookstreams</tspan>
        </text>
      </g>
    </g>
  </g>
  <path
     style="font-size:40px;font-style:normal;font-weight:normal;line-height:125%;letter-spacing:0px;word-spacing:0px;fill:#000000;fill-opacity:1;stroke:none;font-family:Sans"
     d="m 1488.6154,315.23972 c -7.7056,1.4e-4 -13.5998,6.0783 -17.6826,18.34544 -4.0523,12.20574 -6.1153,29.95937 -6.1153,53.26094 0,23.24007 2.063,40.99369 6.1153,53.26094 4.0828,12.20564 9.977,18.34544 17.6826,18.34544 7.7053,0 13.5564,-6.1398 17.6088,-18.34544 4.0827,-12.26725 6.1151,-30.02087 6.1151,-53.26094 0,-23.30157 -2.0324,-41.0552 -6.1151,-53.26094 -4.0524,-12.26714 -9.9035,-18.3453 -17.6088,-18.34544 z m 233.8516,0 c -2.7321,1.4e-4 -5.6669,0.4933 -8.7675,1.47947 -3.0699,0.98645 -6.3424,2.46592 -9.8727,4.43841 l 0,16.57007 c 3.4997,-2.34237 6.7354,-4.06842 9.6518,-5.17814 2.9162,-1.10948 5.6301,-1.6273 8.1781,-1.62742 4.6663,1.2e-4 8.2702,1.94809 10.7569,5.76994 2.5172,3.76043 3.7574,9.18515 3.7576,16.27417 -2e-4,6.9043 -1.1852,12.13175 -3.6103,15.83034 -2.4253,3.63711 -5.9618,5.47412 -10.5357,5.47404 l -8.3995,0 0,15.38649 8.031,0 c 5.0652,7e-5 9.0376,2.33024 11.8621,6.95352 2.8549,4.56175 4.2731,10.94813 4.2731,19.08517 0,8.81521 -1.5716,15.49748 -4.6416,20.1208 -3.0392,4.62336 -7.4292,6.95353 -13.2619,6.95351 -3.3462,2e-5 -6.5819,-0.82602 -9.6516,-2.36715 -3.0699,-1.5411 -5.8944,-3.78496 -8.473,-6.80557 l 0,18.04955 c 3.2541,2.28085 6.3914,3.92059 9.4307,5.0302 3.0699,1.17124 6.0293,1.77536 8.9148,1.77536 8.5959,0 15.2268,-3.78498 19.8931,-11.24398 4.6661,-7.45898 6.9993,-17.88923 6.9993,-31.51272 0,-8.87678 -1.2404,-16.44673 -3.7575,-22.48796 -2.4868,-6.0411 -5.9373,-9.92471 -10.3886,-11.83576 4.0215,-2.03419 7.1037,-5.70821 9.2834,-10.94808 2.1796,-5.30135 3.2418,-11.73704 3.2418,-19.38107 0,-10.97262 -2.0017,-19.77547 -6.1154,-26.18663 -4.1136,-6.47254 -9.7376,-9.61642 -16.7984,-9.61656 z m 60.0471,0 c -2.7323,1.4e-4 -5.5933,0.4933 -8.6939,1.47947 -3.0699,0.98645 -6.4162,2.46592 -9.9463,4.43841 l 0,16.57007 c 3.4995,-2.34237 6.7352,-4.06842 9.6516,-5.17814 2.9165,-1.10948 5.6301,-1.6273 8.1781,-1.62742 4.6663,1.2e-4 8.2702,1.94809 10.7571,5.76994 2.5171,3.76043 3.7574,9.18515 3.7574,16.27417 0,6.9043 -1.2587,12.13175 -3.6838,15.83034 -2.4254,3.63711 -5.8881,5.47412 -10.4622,5.47404 l -8.3992,0 0,15.38649 8.0307,0 c 5.0654,7e-5 9.0379,2.33024 11.8621,6.95352 2.8549,4.56175 4.2733,10.94813 4.2733,19.08517 0,8.81521 -1.5718,15.49748 -4.6418,20.1208 -3.039,4.62336 -7.429,6.95353 -13.2619,6.95351 -3.346,2e-5 -6.5817,-0.82602 -9.6516,-2.36715 -3.0699,-1.5411 -5.8942,-3.78496 -8.4728,-6.80557 l 0,18.04955 c 3.2541,2.28085 6.3915,3.92059 9.4307,5.0302 3.0697,1.17124 6.0291,1.77536 8.9149,1.77536 8.5956,0 15.2265,-3.78498 19.8928,-11.24398 4.6661,-7.45898 6.9993,-17.88923 6.9993,-31.51272 0,-8.87678 -1.2402,-16.44673 -3.7575,-22.48796 -2.4866,-6.0411 -5.937,-9.92471 -10.3886,-11.83576 4.0217,-2.03419 7.1039,-5.70821 9.2836,-10.94808 2.1794,-5.30135 3.3154,-11.73704 3.3154,-19.38107 0,-10.97262 -2.0753,-19.77547 -6.1889,-26.18663 -4.1137,-6.47254 -9.7377,-9.61642 -16.7985,-9.61656 z m -436.2433,2.5151 0,15.68239 33.0074,0 -23.5031,122.35222 9.7254,0 24.9767,-130.19341 0,-7.8412 -44.2064,0 z m 62.4784,0 0,69.23923 c 2.5786,-2.34243 5.1326,-4.06848 7.5886,-5.17815 2.4867,-1.10953 4.9549,-1.62734 7.4415,-1.62742 5.3107,8e-5 9.4982,2.8234 12.5988,8.43299 3.1005,5.60972 4.6415,13.16734 4.6415,22.78384 0,9.6166 -1.541,17.32217 -4.6415,22.9318 -3.1006,5.60967 -7.2881,8.433 -12.5988,8.43298 -3.2849,2e-5 -6.41,-0.73972 -9.3571,-2.2192 -2.9471,-1.47946 -5.7836,-3.78496 -8.5466,-6.80557 l 0,18.78928 c 3.1928,1.97263 6.2318,3.4521 9.2096,4.43841 3.0086,0.98631 5.9557,1.47947 8.8413,1.47947 8.3808,0 14.9198,-4.08087 19.5246,-12.27961 4.6048,-8.26036 6.9256,-19.91118 6.9256,-34.76756 0,-14.42478 -2.2963,-25.73039 -6.7783,-34.17577 -4.4821,-8.44522 -10.5237,-12.72336 -18.1984,-12.72345 -1.3507,9e-5 -2.7014,0.24668 -4.0521,0.73974 -1.3507,0.4316 -2.7014,1.14668 -4.0522,2.07126 l 0,-33.87988 27.9974,0 0,-15.68239 -36.5439,0 z m 252.5659,0 -16.4302,6.65762 0,17.01391 16.5037,-6.65762 0,105.33831 -15.1775,0 0,15.68239 39.6384,0 0,-15.68239 -15.1775,0 0,-122.35222 -9.3569,0 z m 186.551,0 -28.5869,87.43672 0,18.04954 31.0181,0 0,32.54835 9.2833,0 0,-32.54835 9.7992,0 0,-15.53444 -9.7992,0 0,-89.95182 -11.7145,0 z m -359.2507,12.27961 c 4.8196,1.3e-4 8.436,4.70977 10.8304,14.20292 2.4252,9.43172 3.6101,23.6223 3.6104,42.60875 -3e-4,18.92494 -1.1852,33.11552 -3.6104,42.60876 -2.3944,9.43164 -6.0108,14.20293 -10.8304,14.20291 -4.7891,2e-5 -8.4056,-4.77127 -10.8307,-14.20291 -2.3944,-9.49324 -3.6103,-23.68382 -3.6101,-42.60876 -2e-4,-18.98645 1.2157,-33.17703 3.6101,-42.60875 2.4251,-9.49315 6.0416,-14.20279 10.8307,-14.20292 z m 361.6819,3.99457 0,73.67764 -23.4294,0 23.4294,-73.67764 z m -297.2144,18.19749 18.3458,49.41432 -20.0402,54.14862 10.0201,0 15.0302,-40.68544 14.9564,40.68544 10.0201,0 -19.5982,-53.26094 18.6402,-50.302 -10.0201,0 -13.6302,36.83882 -13.7039,-36.83882 -10.0202,0 z"
     id="flowRoot3127"
     inkscape:connector-curvature="0" />
  <flowRoot
     transform="matrix(4.1708221,0,0,5.2869831,-226.18118,1169.2347)"
     style="font-size:40px;font-style:normal;font-weight:normal;line-height:125%;letter-spacing:0px;word-spacing:0px;fill:#000000;fill-opacity:1;stroke:none;font-family:Sans"
     id="flowRoot3211"
     xml:space="preserve"><flowRegion
       id="flowRegion3213"><rect
         y="-284.86575"
         x="66.940895"
         height="246.84456"
         width="949.72394"
         id="rect3215" /></flowRegion><flowPara
       id="flowPara3217">1242x2208</flowPara></flowRoot>  <flowRoot
     xml:space="preserve"
     id="flowRoot3275"
     style="font-size:40px;font-style:normal;font-weight:normal;line-height:125%;letter-spacing:0px;word-spacing:0px;fill:#000000;fill-opacity:1;stroke:none;font-family:Sans"
     transform="matrix(2.453263,0,0,5.2629196,-3772.0144,3175.3686)"><flowRegion
       id="flowRegion3277"><rect
         id="rect3279"
         width="1514.5377"
         height="317.96927"
         x="2485.1807"
         y="-556.81311" /></flowRegion><flowPara
       id="flowPara3281">1536x2048</flowPara><flowPara
       id="flowPara3283">768x1024</flowPara></flowRoot>  <flowRoot
     xml:space="preserve"
     id="flowRoot3285"
     style="font-size:40px;font-style:normal;font-weight:normal;line-height:125%;letter-spacing:0px;word-spacing:0px;fill:#000000;fill-opacity:1;stroke:none;font-family:Sans"
     transform="matrix(2.4469394,0,0,6.5315911,437.29245,25.827531)"><flowRegion
       id="flowRegion3287"><rect
         id="rect3289"
         width="502.0567"
         height="209.19029"
         x="1606.5815"
         y="45.654922" /></flowRegion><flowPara
       id="flowPara3291">640x1136</flowPara></flowRoot>  <flowRoot
     xml:space="preserve"
     id="flowRoot3349"
     style="font-size:40px;font-style:normal;font-weight:normal;line-height:125%;letter-spacing:0px;word-spacing:0px;fill:#000000;fill-opacity:1;stroke:none;font-family:Sans"
     transform="matrix(2.9082284,0,0,6.2550115,-8375.4373,-3660.236)"><flowRegion
       id="flowRegion3351"><rect
         id="rect3353"
         width="602.46808"
         height="359.80731"
         x="4024.8213"
         y="648.12299" /></flowRegion><flowPara
       id="flowPara3357">640x960</flowPara></flowRoot>  <flowRoot
     xml:space="preserve"
     id="flowRoot3389"
     style="font-size:40px;font-style:normal;font-weight:normal;line-height:125%;letter-spacing:0px;word-spacing:0px;fill:#000000;fill-opacity:1;stroke:none;font-family:Sans"
     transform="matrix(6.3535989,0,0,5.4252727,-4931.6684,10271.499)"><flowRegion
       id="flowRegion3391"><rect
         id="rect3393"
         width="3715.2197"
         height="451.85104"
         x="1179.8333"
         y="-1962.5719" /></flowRegion><flowPara
       id="flowPara3395">ios</flowPara></flowRoot>  <flowRoot
     transform="matrix(8.2958398,0,0,8.5813919,-3691.6467,16455.99)"
     style="font-size:40px;font-style:normal;font-weight:normal;line-height:125%;letter-spacing:0px;word-spacing:0px;fill:#000000;fill-opacity:1;stroke:none;font-family:Sans"
     id="flowRoot3397"
     xml:space="preserve"><flowRegion
       id="flowRegion3399"><rect
         y="-1962.5719"
         x="1179.8333"
         height="451.85104"
         width="3715.2197"
         id="rect3401" /></flowRegion><flowPara
       id="flowPara3403">android</flowPara></flowRoot>  <g
     id="g3222"
     transform="matrix(-1,0,0,-1,50,2506)"
     inkscape:export-filename="/Users/pscanf/projects/bookstreams/front/assets/app-splash/ios-750x1334.png"
     inkscape:export-xdpi="90"
     inkscape:export-ydpi="90">
    <rect
       transform="scale(-1,-1)"
       style="fill:#ffffff"
       x="1250"
       y="-1920"
       width="750"
       height="1334"
       id="rect3169"
       inkscape:export-filename="/Users/pscanf/projects/bookstreams/front/assets/images/bookstreams.png"
       inkscape:export-xdpi="90"
       inkscape:export-ydpi="90" />
    <g
       style="display:inline"
       id="g3171"
       transform="matrix(-0.69444444,0,0,-0.69444444,-1607.6389,1920)"
       display="inline"
       inkscape:export-filename="/Users/pscanf/projects/bookstreams/front/assets/images/bookstreams.png"
       inkscape:export-xdpi="90"
       inkscape:export-ydpi="90">
      <path
         style="fill:#f44336;fill-opacity:1;stroke:none"
         inkscape:connector-curvature="0"
         d="M 54.8512,1092.2491 0,1150 0,0 l 110,0 0,1150 -55.1488,-57.7509 z"
         id="path3173" />
    </g>
    <g
       style="display:inline"
       id="g3175"
       transform="matrix(-0.69444444,0,0,-0.69444444,-1510.4167,1920)"
       display="inline"
       inkscape:export-filename="/Users/pscanf/projects/bookstreams/front/assets/images/bookstreams.png"
       inkscape:export-xdpi="90"
       inkscape:export-ydpi="90">
      <path
         style="fill:#4caf50;fill-opacity:1;stroke:none"
         inkscape:connector-curvature="0"
         d="M 59.8377,840.7837 0,900 0,0 120,0 120,900 59.8377,840.7837 z"
         id="path3177" />
    </g>
    <g
       style="display:inline"
       id="g3179"
       transform="matrix(-0.69444444,0,0,-0.69444444,-1399.3056,1920)"
       display="inline"
       inkscape:export-filename="/Users/pscanf/projects/bookstreams/front/assets/images/bookstreams.png"
       inkscape:export-xdpi="90"
       inkscape:export-ydpi="90">
      <path
         style="fill:#ffc107;fill-opacity:1;stroke:none"
         inkscape:connector-curvature="0"
         d="M 69.8106,1224.2436 0,1300 0,0 l 140,0 0,1300 -70.1894,-75.7564 z"
         id="path3181" />
    </g>
    <g
       style="display:inline"
       id="g3183"
       transform="matrix(-0.69444444,0,0,-0.69444444,-1697.9167,1920)"
       display="inline"
       inkscape:export-filename="/Users/pscanf/projects/bookstreams/front/assets/images/bookstreams.png"
       inkscape:export-xdpi="90"
       inkscape:export-ydpi="90">
      <path
         style="fill:#9c27b0;fill-opacity:1;stroke:none"
         inkscape:connector-curvature="0"
         d="M 64.8241,434.6173 0,500 0,0 130,0 130,500 64.8241,434.6173 z"
         id="path3185" />
    </g>
    <path
       style="fill:#2196f3;fill-opacity:1;stroke:none"
       inkscape:connector-curvature="0"
       id="path3187"
       d="m -1343.6373,1426.0282 41.554,-40.7504 0,534.7222 -83.3334,0 0,-534.7222 41.7794,40.7504 z"
       inkscape:export-filename="/Users/pscanf/projects/bookstreams/front/assets/images/bookstreams.png"
       inkscape:export-xdpi="90"
       inkscape:export-ydpi="90" />
    <g
       style="display:inline"
       display="inline"
       transform="matrix(0,-0.70251972,0.6902316,0,-1414.465,1872.7389)"
       id="g3189"
       inkscape:export-filename="/Users/pscanf/projects/bookstreams/front/assets/images/bookstreams.png"
       inkscape:export-xdpi="90"
       inkscape:export-ydpi="90">
      <text
         style="font-size:130px;font-style:normal;font-weight:normal;letter-spacing:10;fill:#ffffff;fill-opacity:1;stroke:none;font-family:Lato"
         id="text3191"
         font-style="normal"
         font-weight="normal"
         letter-spacing="10"
         font-size="130"
         y="0"
         x="0">
        <tspan
           id="tspan3193"
           y="0"
           x="0">bookstreams</tspan>
      </text>
    </g>
  </g>
  <g
     id="g3294"
     transform="matrix(-1,0,0,-1,1468,2816)"
     inkscape:export-filename="/Users/pscanf/projects/bookstreams/front/assets/app-splash/ios-1536x2048.png"
     inkscape:export-xdpi="180"
     inkscape:export-ydpi="180">
    <rect
       transform="scale(-1,-1)"
       style="fill:#ffffff"
       x="832"
       y="-1920"
       width="768"
       height="1024"
       id="rect3241"
       inkscape:export-filename="/Users/pscanf/projects/bookstreams/front/assets/images/bookstreams.png"
       inkscape:export-xdpi="90"
       inkscape:export-ydpi="90" />
    <g
       style="display:inline"
       id="g3243"
       transform="matrix(-0.71111111,0,0,-0.71111111,-1198.2222,1920)"
       display="inline"
       inkscape:export-filename="/Users/pscanf/projects/bookstreams/front/assets/images/bookstreams.png"
       inkscape:export-xdpi="90"
       inkscape:export-ydpi="90">
      <path
         style="fill:#f44336;fill-opacity:1;stroke:none"
         inkscape:connector-curvature="0"
         d="M 54.8512,1092.2491 0,1150 0,0 l 110,0 0,1150 -55.1488,-57.7509 z"
         id="path3245" />
    </g>
    <g
       style="display:inline"
       id="g3247"
       transform="matrix(-0.71111111,0,0,-0.71111111,-1098.6667,1920)"
       display="inline"
       inkscape:export-filename="/Users/pscanf/projects/bookstreams/front/assets/images/bookstreams.png"
       inkscape:export-xdpi="90"
       inkscape:export-ydpi="90">
      <path
         style="fill:#4caf50;fill-opacity:1;stroke:none"
         inkscape:connector-curvature="0"
         d="M 59.8377,840.7837 0,900 0,0 120,0 120,900 59.8377,840.7837 z"
         id="path3249" />
    </g>
    <g
       style="display:inline"
       id="g3251"
       transform="matrix(-0.71111111,0,0,-0.71111111,-984.88889,1920)"
       display="inline"
       inkscape:export-filename="/Users/pscanf/projects/bookstreams/front/assets/images/bookstreams.png"
       inkscape:export-xdpi="90"
       inkscape:export-ydpi="90">
      <path
         style="fill:#ffc107;fill-opacity:1;stroke:none"
         inkscape:connector-curvature="0"
         d="M 69.8106,1224.2436 0,1300 0,0 l 140,0 0,1300 -70.1894,-75.7564 z"
         id="path3253" />
    </g>
    <g
       style="display:inline"
       id="g3255"
       transform="matrix(-0.71111111,0,0,-0.71111111,-1290.6667,1920)"
       display="inline"
       inkscape:export-filename="/Users/pscanf/projects/bookstreams/front/assets/images/bookstreams.png"
       inkscape:export-xdpi="90"
       inkscape:export-ydpi="90">
      <path
         style="fill:#9c27b0;fill-opacity:1;stroke:none"
         inkscape:connector-curvature="0"
         d="M 64.8241,434.6173 0,500 0,0 130,0 130,500 64.8241,434.6173 z"
         id="path3257" />
    </g>
    <path
       style="fill:#2196f3;fill-opacity:1;stroke:none"
       inkscape:connector-curvature="0"
       id="path3259"
       d="m -927.88459,1414.1729 42.55126,-41.7285 0,547.5556 -85.33334,0 0,-547.5556 42.78208,41.7285 z"
       inkscape:export-filename="/Users/pscanf/projects/bookstreams/front/assets/images/bookstreams.png"
       inkscape:export-xdpi="90"
       inkscape:export-ydpi="90" />
    <g
       style="display:inline"
       display="inline"
       transform="matrix(0,-0.71938019,0.70679716,0,-1000.4122,1871.6046)"
       id="g3261"
       inkscape:export-filename="/Users/pscanf/projects/bookstreams/front/assets/images/bookstreams.png"
       inkscape:export-xdpi="90"
       inkscape:export-ydpi="90">
      <text
         style="font-size:130px;font-style:normal;font-weight:normal;letter-spacing:10;fill:#ffffff;fill-opacity:1;stroke:none;font-family:Lato"
         id="text3263"
         font-style="normal"
         font-weight="normal"
         letter-spacing="10"
         font-size="130"
         y="0"
         x="0">
        <tspan
           id="tspan3265"
           y="0"
           x="0">bookstreams</tspan>
      </text>
    </g>
  </g>
  <g
     id="g3368"
     transform="matrix(-1,0,0,-1,2640,2880)"
     inkscape:export-filename="/Users/pscanf/projects/bookstreams/front/assets/app-splash/ios-640x960.png"
     inkscape:export-xdpi="90"
     inkscape:export-ydpi="90">
    <rect
       transform="scale(-1,-1)"
       style="fill:#ffffff"
       x="660"
       y="-1920"
       width="640"
       height="960"
       id="rect3315"
       inkscape:export-filename="/Users/pscanf/projects/bookstreams/front/assets/images/bookstreams.png"
       inkscape:export-xdpi="90"
       inkscape:export-ydpi="90" />
    <g
       style="display:inline"
       id="g3317"
       transform="matrix(-0.59259259,0,0,-0.59259259,-965.18518,1920)"
       display="inline"
       inkscape:export-filename="/Users/pscanf/projects/bookstreams/front/assets/images/bookstreams.png"
       inkscape:export-xdpi="90"
       inkscape:export-ydpi="90">
      <path
         style="fill:#f44336;fill-opacity:1;stroke:none"
         inkscape:connector-curvature="0"
         d="M 54.8512,1092.2491 0,1150 0,0 l 110,0 0,1150 -55.1488,-57.7509 z"
         id="path3319" />
    </g>
    <g
       style="display:inline"
       id="g3321"
       transform="matrix(-0.59259259,0,0,-0.59259259,-882.22222,1920)"
       display="inline"
       inkscape:export-filename="/Users/pscanf/projects/bookstreams/front/assets/images/bookstreams.png"
       inkscape:export-xdpi="90"
       inkscape:export-ydpi="90">
      <path
         style="fill:#4caf50;fill-opacity:1;stroke:none"
         inkscape:connector-curvature="0"
         d="M 59.8377,840.7837 0,900 0,0 120,0 120,900 59.8377,840.7837 z"
         id="path3323" />
    </g>
    <g
       style="display:inline"
       id="g3325"
       transform="matrix(-0.59259259,0,0,-0.59259259,-787.40741,1920)"
       display="inline"
       inkscape:export-filename="/Users/pscanf/projects/bookstreams/front/assets/images/bookstreams.png"
       inkscape:export-xdpi="90"
       inkscape:export-ydpi="90">
      <path
         style="fill:#ffc107;fill-opacity:1;stroke:none"
         inkscape:connector-curvature="0"
         d="M 69.8106,1224.2436 0,1300 0,0 l 140,0 0,1300 -70.1894,-75.7564 z"
         id="path3327" />
    </g>
    <g
       style="display:inline"
       id="g3329"
       transform="matrix(-0.59259259,0,0,-0.59259259,-1042.2222,1920)"
       display="inline"
       inkscape:export-filename="/Users/pscanf/projects/bookstreams/front/assets/images/bookstreams.png"
       inkscape:export-xdpi="90"
       inkscape:export-ydpi="90">
      <path
         style="fill:#9c27b0;fill-opacity:1;stroke:none"
         inkscape:connector-curvature="0"
         d="M 64.8241,434.6173 0,500 0,0 130,0 130,500 64.8241,434.6173 z"
         id="path3331" />
    </g>
    <path
       style="fill:#2196f3;fill-opacity:1;stroke:none"
       inkscape:connector-curvature="0"
       id="path3333"
       d="m -739.90382,1498.4774 35.45938,-34.7737 0,456.2963 -71.11112,0 0,-456.2963 35.65174,34.7737 z"
       inkscape:export-filename="/Users/pscanf/projects/bookstreams/front/assets/images/bookstreams.png"
       inkscape:export-xdpi="90"
       inkscape:export-ydpi="90" />
    <g
       style="display:inline"
       display="inline"
       transform="matrix(0,-0.59948349,0.58899763,0,-800.3435,1879.6705)"
       id="g3335"
       inkscape:export-filename="/Users/pscanf/projects/bookstreams/front/assets/images/bookstreams.png"
       inkscape:export-xdpi="90"
       inkscape:export-ydpi="90">
      <text
         style="font-size:130px;font-style:normal;font-weight:normal;letter-spacing:10;fill:#ffffff;fill-opacity:1;stroke:none;font-family:Lato"
         id="text3337"
         font-style="normal"
         font-weight="normal"
         letter-spacing="10"
         font-size="130"
         y="0"
         x="0">
        <tspan
           id="tspan3339"
           y="0"
           x="0">bookstreams</tspan>
      </text>
    </g>
  </g>
  <g
     id="g3440"
     transform="matrix(-1,0,0,-1,3440,2704)"
     inkscape:export-filename="/Users/pscanf/projects/bookstreams/front/assets/app-splash/ios-640x1136.png"
     inkscape:export-xdpi="90"
     inkscape:export-ydpi="90">
    <rect
       transform="scale(-1,-1)"
       style="fill:#ffffff"
       x="860"
       y="-1920"
       width="640"
       height="1136"
       id="rect3387"
       inkscape:export-filename="/Users/pscanf/projects/bookstreams/front/assets/images/bookstreams.png"
       inkscape:export-xdpi="90"
       inkscape:export-ydpi="90" />
    <g
       style="display:inline"
       id="g3389"
       transform="matrix(-0.59259259,0,0,-0.59259259,-1165.1852,1920)"
       display="inline"
       inkscape:export-filename="/Users/pscanf/projects/bookstreams/front/assets/images/bookstreams.png"
       inkscape:export-xdpi="90"
       inkscape:export-ydpi="90">
      <path
         style="fill:#f44336;fill-opacity:1;stroke:none"
         inkscape:connector-curvature="0"
         d="M 54.8512,1092.2491 0,1150 0,0 l 110,0 0,1150 -55.1488,-57.7509 z"
         id="path3391" />
    </g>
    <g
       style="display:inline"
       id="g3393"
       transform="matrix(-0.59259259,0,0,-0.59259259,-1082.2222,1920)"
       display="inline"
       inkscape:export-filename="/Users/pscanf/projects/bookstreams/front/assets/images/bookstreams.png"
       inkscape:export-xdpi="90"
       inkscape:export-ydpi="90">
      <path
         style="fill:#4caf50;fill-opacity:1;stroke:none"
         inkscape:connector-curvature="0"
         d="M 59.8377,840.7837 0,900 0,0 120,0 120,900 59.8377,840.7837 z"
         id="path3395" />
    </g>
    <g
       style="display:inline"
       id="g3397"
       transform="matrix(-0.59259259,0,0,-0.59259259,-987.40741,1920)"
       display="inline"
       inkscape:export-filename="/Users/pscanf/projects/bookstreams/front/assets/images/bookstreams.png"
       inkscape:export-xdpi="90"
       inkscape:export-ydpi="90">
      <path
         style="fill:#ffc107;fill-opacity:1;stroke:none"
         inkscape:connector-curvature="0"
         d="M 69.8106,1224.2436 0,1300 0,0 l 140,0 0,1300 -70.1894,-75.7564 z"
         id="path3399" />
    </g>
    <g
       style="display:inline"
       id="g3401"
       transform="matrix(-0.59259259,0,0,-0.59259259,-1242.2222,1920)"
       display="inline"
       inkscape:export-filename="/Users/pscanf/projects/bookstreams/front/assets/images/bookstreams.png"
       inkscape:export-xdpi="90"
       inkscape:export-ydpi="90">
      <path
         style="fill:#9c27b0;fill-opacity:1;stroke:none"
         inkscape:connector-curvature="0"
         d="M 64.8241,434.6173 0,500 0,0 130,0 130,500 64.8241,434.6173 z"
         id="path3403" />
    </g>
    <path
       style="fill:#2196f3;fill-opacity:1;stroke:none"
       inkscape:connector-curvature="0"
       id="path3405"
       d="m -939.90382,1498.4774 35.45938,-34.7737 0,456.2963 -71.11112,0 0,-456.2963 35.65174,34.7737 z"
       inkscape:export-filename="/Users/pscanf/projects/bookstreams/front/assets/images/bookstreams.png"
       inkscape:export-xdpi="90"
       inkscape:export-ydpi="90" />
    <g
       style="display:inline"
       display="inline"
       transform="matrix(0,-0.59948349,0.58899763,0,-1000.3435,1879.6705)"
       id="g3407"
       inkscape:export-filename="/Users/pscanf/projects/bookstreams/front/assets/images/bookstreams.png"
       inkscape:export-xdpi="90"
       inkscape:export-ydpi="90">
      <text
         style="font-size:130px;font-style:normal;font-weight:normal;letter-spacing:10;fill:#ffffff;fill-opacity:1;stroke:none;font-family:Lato"
         id="text3409"
         font-style="normal"
         font-weight="normal"
         letter-spacing="10"
         font-size="130"
         y="0"
         x="0">
        <tspan
           id="tspan3411"
           y="0"
           x="0">bookstreams</tspan>
      </text>
    </g>
  </g>
  <rect
     style="fill:#000000;stroke-width:16;stroke-miterlimit:4;stroke-dasharray:none"
     id="rect3455"
     width="41.838058"
     height="2853.3557"
     x="5413.8447"
     y="-314.1524" />
  <flowRoot
     transform="matrix(2.9082284,0,0,6.2550115,-5337.9942,-3568.1923)"
     style="font-size:40px;font-style:normal;font-weight:normal;line-height:125%;letter-spacing:0px;word-spacing:0px;fill:#000000;fill-opacity:1;stroke:none;font-family:Sans"
     id="flowRoot3457"
     xml:space="preserve"><flowRegion
       id="flowRegion3459"><rect
         y="648.12299"
         x="4024.8213"
         height="359.80731"
         width="602.46808"
         id="rect3461" /></flowRegion><flowPara
       id="flowPara3463">640x960</flowPara></flowRoot>  <g
     transform="matrix(-1,0,0,-1,5640,2880)"
     id="g3465"
     inkscape:export-filename="/Users/pscanf/projects/bookstreams/front/assets/app-splash/android-1280x1920.png"
     inkscape:export-xdpi="180"
     inkscape:export-ydpi="180">
    <rect
       inkscape:export-ydpi="90"
       inkscape:export-xdpi="90"
       inkscape:export-filename="/Users/pscanf/projects/bookstreams/front/assets/images/bookstreams.png"
       id="rect3467"
       height="960"
       width="640"
       y="-1920"
       x="660"
       style="fill:#ffffff"
       transform="scale(-1,-1)" />
    <g
       inkscape:export-ydpi="90"
       inkscape:export-xdpi="90"
       inkscape:export-filename="/Users/pscanf/projects/bookstreams/front/assets/images/bookstreams.png"
       display="inline"
       transform="matrix(-0.59259259,0,0,-0.59259259,-965.18518,1920)"
       id="g3469"
       style="display:inline">
      <path
         id="path3471"
         d="M 54.8512,1092.2491 0,1150 0,0 l 110,0 0,1150 -55.1488,-57.7509 z"
         inkscape:connector-curvature="0"
         style="fill:#f44336;fill-opacity:1;stroke:none" />
    </g>
    <g
       inkscape:export-ydpi="90"
       inkscape:export-xdpi="90"
       inkscape:export-filename="/Users/pscanf/projects/bookstreams/front/assets/images/bookstreams.png"
       display="inline"
       transform="matrix(-0.59259259,0,0,-0.59259259,-882.22222,1920)"
       id="g3473"
       style="display:inline">
      <path
         id="path3475"
         d="M 59.8377,840.7837 0,900 0,0 120,0 120,900 59.8377,840.7837 z"
         inkscape:connector-curvature="0"
         style="fill:#4caf50;fill-opacity:1;stroke:none" />
    </g>
    <g
       inkscape:export-ydpi="90"
       inkscape:export-xdpi="90"
       inkscape:export-filename="/Users/pscanf/projects/bookstreams/front/assets/images/bookstreams.png"
       display="inline"
       transform="matrix(-0.59259259,0,0,-0.59259259,-787.40741,1920)"
       id="g3477"
       style="display:inline">
      <path
         id="path3479"
         d="M 69.8106,1224.2436 0,1300 0,0 l 140,0 0,1300 -70.1894,-75.7564 z"
         inkscape:connector-curvature="0"
         style="fill:#ffc107;fill-opacity:1;stroke:none" />
    </g>
    <g
       inkscape:export-ydpi="90"
       inkscape:export-xdpi="90"
       inkscape:export-filename="/Users/pscanf/projects/bookstreams/front/assets/images/bookstreams.png"
       display="inline"
       transform="matrix(-0.59259259,0,0,-0.59259259,-1042.2222,1920)"
       id="g3481"
       style="display:inline">
      <path
         id="path3483"
         d="M 64.8241,434.6173 0,500 0,0 130,0 130,500 64.8241,434.6173 z"
         inkscape:connector-curvature="0"
         style="fill:#9c27b0;fill-opacity:1;stroke:none" />
    </g>
    <path
       inkscape:export-ydpi="90"
       inkscape:export-xdpi="90"
       inkscape:export-filename="/Users/pscanf/projects/bookstreams/front/assets/images/bookstreams.png"
       d="m -739.90382,1498.4774 35.45938,-34.7737 0,456.2963 -71.11112,0 0,-456.2963 35.65174,34.7737 z"
       id="path3485"
       inkscape:connector-curvature="0"
       style="fill:#2196f3;fill-opacity:1;stroke:none" />
    <g
       inkscape:export-ydpi="90"
       inkscape:export-xdpi="90"
       inkscape:export-filename="/Users/pscanf/projects/bookstreams/front/assets/images/bookstreams.png"
       id="g3487"
       transform="matrix(0,-0.59948349,0.58899763,0,-800.3435,1879.6705)"
       display="inline"
       style="display:inline">
      <text
         x="0"
         y="0"
         font-size="130"
         letter-spacing="10"
         font-weight="normal"
         font-style="normal"
         id="text3489"
         style="font-size:130px;font-style:normal;font-weight:normal;letter-spacing:10;fill:#ffffff;fill-opacity:1;stroke:none;font-family:Lato">
        <tspan
           x="0"
           y="0"
           id="tspan3491">bookstreams</tspan>
      </text>
    </g>
  </g>
</svg>
